<svg width="24" height="24" viewBox="0 0 24 24" fill="none" xmlns="http://www.w3.org/2000/svg">
<path d="M12.0026 4.28589C6.04112 4.28589 1.20886 7.37718 1.20886 11.1909C1.20886 15.0045 6.04112 18.3952 12.0026 18.3952C17.9642 18.3952 22.7962 15.0043 22.7962 11.1909C22.7962 7.37745 17.9639 4.28589 12.0026 4.28589Z" fill="#00BCFF"/>
<path d="M8.49062 9.05659C8.48523 9.06711 8.37976 9.17621 8.44817 9.26393C8.61497 9.47717 9.13057 9.59941 9.65195 9.4824C9.96238 9.41276 10.3602 9.09616 10.7457 8.7904C11.1136 8.45619 11.5358 8.18703 11.9941 7.99444C12.2868 7.88724 12.6066 7.87888 12.9046 7.97062C13.2071 8.08302 13.4879 8.24687 13.7346 8.45494C14.4582 8.99903 17.3679 11.5389 17.8708 11.9778C19.4158 11.3353 21.0153 10.8328 22.6502 10.4764C22.4375 9.17276 21.6534 7.92995 20.4505 6.95335C18.7737 7.65758 16.588 8.07924 14.5844 7.10095C13.9037 6.79277 13.1676 6.6254 12.4205 6.60889C10.8309 6.64587 10.1423 7.33369 9.41365 8.0619L8.49062 9.05659Z" fill="white"/>
<path d="M17.7526 12.2541C17.7182 12.2234 14.3312 9.25967 13.5637 8.68291C13.2964 8.44506 12.9666 8.28851 12.6133 8.23166C12.4612 8.21955 12.3082 8.23427 12.1612 8.27514C11.708 8.44581 11.2888 8.69562 10.923 9.01295C10.4941 9.35477 10.0895 9.67647 9.71388 9.76065C9.25996 9.8539 8.78769 9.78294 8.38122 9.56044C8.28605 9.50221 8.20935 9.41817 8.16004 9.31809C8.13289 9.2414 8.12916 9.15837 8.14933 9.07956C8.1695 9.00075 8.21267 8.92973 8.27333 8.87552L9.20814 7.86446C9.31692 7.75614 9.42616 7.64749 9.5385 7.54079C9.2502 7.58412 8.96541 7.64825 8.68636 7.73267C8.36501 7.83941 8.03059 7.90178 7.69237 7.91805C7.35153 7.88355 7.01282 7.83061 6.67771 7.75945C5.67851 7.52499 4.70315 7.19859 3.76409 6.78442C2.43515 7.7737 1.56979 8.98832 1.31299 10.3507C1.50393 10.4011 2.00427 10.5152 2.13357 10.5439C5.14101 11.2125 6.07755 11.9013 6.24748 12.0452C6.34741 11.9327 6.47156 11.8443 6.61057 11.7867C6.74958 11.7291 6.89984 11.7038 7.05004 11.7127C7.20025 11.7215 7.3465 11.7643 7.47779 11.8378C7.60907 11.9113 7.72198 12.0137 7.80802 12.1371C8.01085 11.9731 8.26398 11.884 8.52479 11.8849C8.67132 11.8863 8.81662 11.9117 8.9549 11.9602C9.08891 12.0031 9.21224 12.074 9.31663 12.1684C9.42102 12.2627 9.50408 12.3782 9.56024 12.5072C9.69165 12.4477 9.8344 12.4173 9.97866 12.4182C10.1512 12.4204 10.3215 12.458 10.479 12.5286C10.6979 12.6312 10.8755 12.8051 10.9828 13.0219C11.09 13.2386 11.1205 13.4853 11.0693 13.7216C11.1091 13.7173 11.149 13.7152 11.1891 13.7153C11.5051 13.7158 11.8081 13.8416 12.0316 14.0652C12.2551 14.2887 12.3807 14.5918 12.3811 14.9079C12.3811 15.1045 12.3321 15.298 12.2384 15.4708C12.5497 15.661 12.9093 15.7573 13.274 15.7481C13.3649 15.7482 13.4548 15.7294 13.5382 15.6931C13.6215 15.6567 13.6965 15.6036 13.7583 15.5369C13.7883 15.4947 13.8196 15.4452 13.7905 15.4095L12.9419 14.4672C12.9419 14.4672 12.8023 14.335 12.8484 14.2841C12.8961 14.2316 12.9824 14.3068 13.0437 14.3579C13.4754 14.7185 14.0025 15.2628 14.0025 15.2628C14.0118 15.2687 14.0464 15.3377 14.2414 15.3727C14.358 15.393 14.4774 15.3896 14.5926 15.3627C14.7079 15.3358 14.8165 15.286 14.912 15.2163C14.9662 15.171 15.0156 15.1204 15.0597 15.0652C15.0567 15.0682 15.0534 15.0708 15.0498 15.0729C15.1093 14.9907 15.1392 14.8908 15.1348 14.7894C15.1304 14.688 15.0919 14.5911 15.0255 14.5143L14.0349 13.4019C14.0349 13.4019 13.8931 13.2707 13.9417 13.2185C13.9847 13.1726 14.0757 13.2417 14.1379 13.2932C14.4514 13.5555 14.8946 13.9999 15.3193 14.4164C15.4609 14.5121 15.6292 14.5605 15.8001 14.5546C15.9709 14.5487 16.1354 14.4887 16.2701 14.3834C16.3803 14.3225 16.4716 14.2323 16.5336 14.1227C16.5957 14.0131 16.6262 13.8884 16.6216 13.7626C16.6002 13.6052 16.5266 13.4596 16.4124 13.3491L15.0597 11.9884C15.0597 11.9884 14.9164 11.8663 14.9672 11.8048C15.0086 11.7528 15.1009 11.8275 15.1621 11.8784C15.5929 12.2391 16.7597 13.3092 16.7597 13.3092C16.8972 13.3979 17.058 13.4436 17.2216 13.4403C17.3852 13.4371 17.5441 13.385 17.6779 13.2909C17.7639 13.2406 17.8363 13.1701 17.8888 13.0855C17.9413 13.0009 17.9724 12.9047 17.9793 12.8054C17.9833 12.7026 17.9651 12.6002 17.926 12.505C17.8869 12.4099 17.8277 12.3243 17.7526 12.2541Z" fill="white"/>
<path d="M11.1889 13.9786C11.03 14.0009 10.8731 14.0357 10.7196 14.0826C10.7029 14.0718 10.7325 13.9874 10.752 13.9388C10.7724 13.8907 11.0487 13.0591 10.375 12.7706C10.2243 12.6897 10.0514 12.6596 9.88225 12.6848C9.71305 12.7101 9.55651 12.7892 9.43591 12.9106C9.40773 12.94 9.39491 12.9375 9.39178 12.9004C9.38777 12.7451 9.33525 12.595 9.24158 12.4711C9.14792 12.3472 9.01782 12.2558 8.86954 12.2096C8.65954 12.145 8.43427 12.1499 8.2273 12.2237C8.02034 12.2975 7.84274 12.4361 7.72097 12.619C7.69928 12.4551 7.62295 12.3032 7.5043 12.188C7.38566 12.0728 7.23163 12.0009 7.06711 11.9841C6.90259 11.9672 6.73718 12.0063 6.59761 12.095C6.45805 12.1837 6.35247 12.3169 6.29794 12.4731C6.24342 12.6292 6.24313 12.7992 6.29712 12.9555C6.35111 13.1118 6.45623 13.2454 6.59549 13.3346C6.73475 13.4238 6.90003 13.4634 7.06461 13.4471C7.22918 13.4308 7.38346 13.3595 7.5025 13.2447C7.50676 13.2486 7.50838 13.2555 7.50627 13.2694C7.45644 13.4972 7.4903 13.7354 7.60164 13.9403C7.71299 14.1452 7.89438 14.3031 8.11264 14.3853C8.23054 14.4307 8.3583 14.4445 8.48319 14.4252C8.60808 14.406 8.72573 14.3543 8.82445 14.2754C8.88292 14.2342 8.89239 14.2516 8.88416 14.3067C8.8591 14.4772 8.89099 14.8424 9.403 15.0497C9.52986 15.1119 9.67338 15.1315 9.81227 15.1057C9.95116 15.0799 10.078 15.01 10.1741 14.9064C10.24 14.8467 10.258 14.8564 10.2614 14.9491C10.2696 15.1308 10.331 15.306 10.438 15.4531C10.5449 15.6001 10.6926 15.7125 10.8629 15.7764C11.0331 15.8402 11.2184 15.8526 11.3956 15.8121C11.5729 15.7716 11.7344 15.68 11.86 15.5486C11.9856 15.4171 12.0699 15.2517 12.1024 15.0728C12.1348 14.8939 12.114 14.7094 12.0426 14.5422C11.9711 14.375 11.8521 14.2325 11.7004 14.1323C11.5487 14.0321 11.3709 13.9787 11.189 13.9786H11.1889Z" fill="white"/>
<path d="M12.0008 4C5.92572 4 1.00124 7.23115 1.00124 11.1944C1.00124 11.2969 1 11.5797 1 11.6156C1 15.8206 5.30427 19.2258 11.9994 19.2258C18.735 19.2258 23 15.8214 23 11.6164V11.1944C22.9999 7.23115 18.0753 4 12.0008 4ZM22.5041 10.3971C20.9191 10.7478 19.3717 11.2508 17.8835 11.8991C16.8399 10.9886 14.4287 8.89184 13.7757 8.40191C13.5226 8.18897 13.2345 8.02134 12.9243 7.90643C12.7891 7.86381 12.6482 7.84181 12.5065 7.84116C12.326 7.84355 12.147 7.87372 11.9757 7.9306C11.5171 8.12099 11.0945 8.38854 10.7263 8.72165L10.7053 8.73821C10.3264 9.03949 9.93475 9.35113 9.63843 9.41705C9.50878 9.44629 9.3763 9.46113 9.2434 9.46131C9.11006 9.47243 8.97584 9.45705 8.84846 9.41607C8.72109 9.37508 8.60309 9.30931 8.50125 9.22253C8.4828 9.19887 8.49499 9.16079 8.53793 9.10603L8.54346 9.09859L9.46168 8.10948C10.1807 7.39045 10.8599 6.71155 12.4229 6.67567C12.4489 6.67492 12.4752 6.67443 12.5008 6.67443C13.2107 6.70339 13.9085 6.86865 14.5559 7.16118C15.4259 7.59603 16.3839 7.82578 17.3564 7.83279C18.4203 7.81443 19.4673 7.56405 20.4244 7.09914C21.5396 8.03698 22.2792 9.1665 22.5041 10.3971ZM12.0027 4.42484C15.2271 4.42484 18.1125 5.34906 20.0524 6.80468C19.206 7.19129 18.289 7.39917 17.3586 7.41531C16.4484 7.4079 15.5521 7.19214 14.7382 6.78459C14.0345 6.46342 13.2745 6.28386 12.5015 6.25614C12.4721 6.25614 12.4424 6.2566 12.4133 6.25725C11.4822 6.24362 10.5772 6.56492 9.86317 7.16261C9.43083 7.18526 9.00318 7.26333 8.59071 7.3949C8.30079 7.4916 7.99931 7.54935 7.69418 7.56666C7.57919 7.56666 7.37234 7.55614 7.35378 7.55533C6.25674 7.36221 5.18073 7.06443 4.14049 6.66607C6.07644 5.29034 8.88115 4.42484 12.0027 4.42484ZM3.75988 6.95327C5.10147 7.502 6.7291 7.92574 7.24379 7.95908C7.38736 7.96852 7.54032 7.98476 7.69337 7.98508C8.03762 7.96838 8.37802 7.90513 8.70529 7.79706C8.90014 7.74244 9.11501 7.68285 9.34114 7.6397C9.28062 7.6988 9.22044 7.75884 9.15992 7.8195L8.22742 8.82827C8.15651 8.89113 8.10633 8.97403 8.08353 9.06602C8.06074 9.158 8.06638 9.25474 8.09973 9.34344C8.15386 9.45564 8.23892 9.55004 8.34489 9.61552C8.64655 9.78601 8.98832 9.87271 9.33478 9.86663C9.46751 9.86756 9.59994 9.8537 9.7296 9.82531C10.1207 9.73776 10.5309 9.41093 10.9651 9.06555C11.3249 8.75492 11.7358 8.50906 12.1796 8.33888C12.2901 8.30952 12.4038 8.29393 12.5181 8.29246C12.5474 8.29223 12.5767 8.29399 12.6057 8.29772C12.9472 8.35379 13.2658 8.50577 13.5243 8.73594C14.2899 9.31129 17.6773 12.2747 17.7107 12.304C17.7779 12.3678 17.8309 12.4452 17.8659 12.531C17.901 12.6168 17.9174 12.7091 17.914 12.8018C17.9079 12.8906 17.8799 12.9766 17.8327 13.052C17.7855 13.1275 17.7204 13.1902 17.6432 13.2346C17.5115 13.3226 17.3572 13.3707 17.1988 13.3731C17.0598 13.3732 16.9235 13.3338 16.8061 13.2594C16.7937 13.2491 15.6331 12.1848 15.2057 11.8271C15.1523 11.7706 15.0819 11.733 15.0052 11.72C14.9882 11.7197 14.9713 11.7233 14.9559 11.7306C14.9405 11.7378 14.927 11.7485 14.9164 11.7619C14.8492 11.8446 14.9245 11.9594 15.0132 12.0347L16.3689 13.3981C16.4701 13.4966 16.536 13.6256 16.5565 13.7653C16.56 13.8796 16.5318 13.9926 16.4749 14.0918C16.4181 14.191 16.3349 14.2725 16.2346 14.3273C16.0936 14.4266 15.9264 14.4819 15.754 14.4862C15.6162 14.4862 15.4816 14.4453 15.3672 14.3688L15.1728 14.1773C14.8172 13.8275 14.4501 13.4658 14.1815 13.2417C14.1273 13.1858 14.0564 13.149 13.9794 13.1368C13.9634 13.1365 13.9475 13.1396 13.9328 13.1459C13.9181 13.1522 13.9049 13.1615 13.894 13.1733C13.8634 13.2073 13.842 13.2685 13.9188 13.37C13.9394 13.3973 13.9623 13.4228 13.9872 13.4463L14.9763 14.5575C15.0334 14.6222 15.0667 14.7045 15.0708 14.7907C15.0749 14.8769 15.0495 14.9619 14.9987 15.0318L14.9637 15.076C14.9347 15.1074 14.9039 15.137 14.8715 15.1648C14.7315 15.2676 14.5616 15.3214 14.388 15.318C14.3432 15.3182 14.2985 15.3144 14.2543 15.3067C14.1822 15.301 14.1138 15.2722 14.0593 15.2246L14.047 15.212C13.9932 15.1562 13.4945 14.6471 13.082 14.3026C13.0308 14.2482 12.9632 14.212 12.8895 14.1997C12.8726 14.1996 12.8559 14.203 12.8405 14.2099C12.825 14.2168 12.8113 14.2269 12.8001 14.2395C12.7187 14.3289 12.8412 14.4625 12.8932 14.5115L13.7365 15.4423C13.7294 15.4629 13.7187 15.4821 13.705 15.4991C13.6747 15.5409 13.5725 15.6433 13.2664 15.6817C13.2293 15.6864 13.1919 15.6887 13.1544 15.6885C12.8641 15.6698 12.5817 15.586 12.3281 15.4434C12.4185 15.2516 12.459 15.0401 12.4457 14.8285C12.4325 14.6169 12.3661 14.4121 12.2526 14.233C12.1391 14.054 11.9822 13.9065 11.7965 13.8043C11.6108 13.7021 11.4022 13.6484 11.1902 13.6483C11.1754 13.6483 11.1596 13.6488 11.1448 13.6493C11.1809 13.4097 11.1381 13.1648 11.023 12.9516C10.9078 12.7384 10.7265 12.5685 10.5063 12.4673C10.3407 12.393 10.1615 12.3535 9.98002 12.3513C9.84818 12.3507 9.71735 12.3744 9.59412 12.4213C9.46589 12.1723 9.24435 11.9842 8.97788 11.898C8.83275 11.8466 8.68006 11.8197 8.52609 11.8185C8.27356 11.8171 8.02714 11.896 7.82246 12.0439C7.72942 11.927 7.61273 11.8311 7.48004 11.7625C7.34735 11.6938 7.20165 11.654 7.05249 11.6456C6.90333 11.6372 6.75408 11.6604 6.61451 11.7137C6.47495 11.767 6.34823 11.8492 6.24265 11.9549C5.97991 11.7541 4.93799 11.0923 2.14903 10.4591C2.01581 10.4289 1.71342 10.3423 1.52297 10.2865C1.7846 9.03456 2.5801 7.8913 3.75994 6.95327H3.75988ZM8.93313 14.2131L8.90295 14.1861H8.87247C8.84114 14.1885 8.81132 14.2005 8.78718 14.2206C8.66736 14.3128 8.52143 14.3648 8.3703 14.369C8.29065 14.3683 8.21181 14.353 8.13771 14.3238C7.93304 14.2474 7.76305 14.0993 7.65933 13.9071C7.55561 13.7148 7.52521 13.4914 7.57377 13.2784C7.5771 13.2629 7.57624 13.2468 7.57127 13.2318C7.5663 13.2167 7.5574 13.2033 7.5455 13.1928L7.49987 13.1555L7.45719 13.1962C7.33292 13.3169 7.16649 13.3843 6.99327 13.3842C6.86405 13.3848 6.73743 13.348 6.62861 13.2783C6.51979 13.2086 6.43339 13.109 6.37981 12.9914C6.32622 12.8738 6.30771 12.7433 6.32651 12.6155C6.34531 12.4876 6.40062 12.3679 6.48579 12.2707C6.57096 12.1736 6.68238 12.103 6.80665 12.0676C6.93093 12.0322 7.06278 12.0335 7.18637 12.0712C7.30996 12.1089 7.42004 12.1815 7.50338 12.2802C7.58672 12.379 7.63979 12.4997 7.6562 12.6279L7.67931 12.8081L7.77836 12.6555C7.88994 12.4824 8.05569 12.351 8.24976 12.282C8.44384 12.2129 8.65531 12.21 8.85119 12.2738C8.98649 12.3163 9.10507 12.4001 9.19028 12.5134C9.27549 12.6268 9.32303 12.764 9.32623 12.9058C9.33348 12.9932 9.39571 12.9975 9.40777 12.9975C9.42282 12.9964 9.4375 12.9923 9.45087 12.9853C9.46425 12.9783 9.47603 12.9686 9.48547 12.9568C9.54928 12.8902 9.62602 12.8373 9.71098 12.8015C9.79594 12.7656 9.88733 12.7475 9.97956 12.7482C10.1073 12.751 10.2332 12.7794 10.3498 12.8318C10.9818 13.1029 10.6952 13.906 10.6918 13.9142C10.6373 14.0473 10.6352 14.1061 10.6863 14.14L10.7112 14.1517H10.7297C10.7719 14.147 10.8131 14.1362 10.8521 14.1197C10.9598 14.0771 11.0736 14.052 11.1892 14.0453H11.1895C11.3027 14.0453 11.4148 14.0676 11.5194 14.111C11.624 14.1543 11.719 14.2179 11.799 14.2979C11.879 14.378 11.9425 14.473 11.9858 14.5776C12.0291 14.6823 12.0514 14.7944 12.0513 14.9076C12.0513 15.0208 12.029 15.1329 11.9856 15.2374C11.9423 15.342 11.8787 15.437 11.7987 15.5171C11.7186 15.5971 11.6236 15.6606 11.5189 15.7039C11.4143 15.7472 11.3022 15.7694 11.189 15.7694C10.967 15.7707 10.7531 15.6857 10.5926 15.5322C10.4321 15.3787 10.3375 15.1689 10.329 14.947C10.3277 14.9075 10.3236 14.8026 10.2346 14.8026C10.1941 14.8073 10.1568 14.8269 10.1301 14.8577C10.0201 14.9748 9.86808 15.0434 9.70748 15.0485C9.6116 15.0465 9.517 15.026 9.42891 14.9881C8.93801 14.7888 8.93127 14.4517 8.95109 14.3162C8.95592 14.2987 8.95682 14.2804 8.95371 14.2626C8.9506 14.2448 8.94357 14.2279 8.93313 14.2131ZM12.0026 17.9569C6.16133 17.9569 1.42617 14.9275 1.42617 11.1909C1.42707 11.0415 1.43558 10.8923 1.45165 10.7438C1.49829 10.7549 1.96219 10.8658 2.05827 10.8874C4.90724 11.5203 5.84866 12.1783 6.00774 12.3027C5.9401 12.4649 5.91355 12.6413 5.93046 12.8163C5.94737 12.9912 6.00722 13.1592 6.10468 13.3055C6.20215 13.4517 6.33421 13.5717 6.48916 13.6546C6.64411 13.7375 6.81714 13.7809 6.99289 13.7809C7.05857 13.781 7.12411 13.775 7.18866 13.7628C7.23074 13.9744 7.32709 14.1714 7.46828 14.3345C7.60946 14.4976 7.79062 14.6212 7.99397 14.6931C8.11517 14.7407 8.24409 14.7656 8.37429 14.7665C8.45624 14.767 8.53791 14.7569 8.61728 14.7365C8.71512 14.9424 8.86791 15.1173 9.05881 15.2419C9.24972 15.3665 9.47133 15.436 9.6992 15.4427C9.8104 15.4427 9.92071 15.423 10.025 15.3845C10.104 15.5778 10.23 15.7484 10.3915 15.8808C10.553 16.0132 10.745 16.1033 10.95 16.1429C11.1551 16.1824 11.3668 16.1703 11.566 16.1075C11.7651 16.0446 11.9455 15.9332 12.0908 15.7831C12.4157 15.9725 12.7811 16.0816 13.1566 16.1014C13.2106 16.1013 13.2644 16.0979 13.3179 16.0912C13.4566 16.087 13.5927 16.0533 13.7173 15.9923C13.8419 15.9313 13.9521 15.8445 14.0405 15.7376C14.0572 15.7147 14.0721 15.6905 14.0852 15.6652C14.1958 15.6989 14.3108 15.7169 14.4265 15.7186C14.6767 15.7136 14.9184 15.6272 15.115 15.4724C15.3227 15.3361 15.4686 15.1238 15.5214 14.8811C15.5219 14.8785 15.5222 14.8758 15.5224 14.8731C15.5982 14.8885 15.6755 14.8963 15.7529 14.8962C16.0057 14.8931 16.2519 14.815 16.4604 14.6719C16.6189 14.58 16.7497 14.447 16.8391 14.287C16.9284 14.127 16.9729 13.9458 16.968 13.7626C17.0448 13.7786 17.1231 13.7867 17.2016 13.7869C17.4375 13.7843 17.6677 13.7135 17.8642 13.5829C17.9948 13.5031 18.1046 13.3936 18.1848 13.2633C18.2649 13.1329 18.3131 12.9854 18.3254 12.8329C18.3411 12.6206 18.2899 12.4088 18.179 12.2271C19.6001 11.6471 21.0675 11.1875 22.5656 10.8534C22.5742 10.9653 22.5789 11.0778 22.5789 11.1911C22.5789 14.9275 17.8439 17.9569 12.0027 17.9569L12.0026 17.9569Z" fill="#0A0080"/>
</svg>
