<svg xmlns="http://www.w3.org/2000/svg" fill="none" viewBox="0 0 20 20"><g clip-path="url(#a)"><path fill="#FFD400" fill-rule="evenodd" d="M10 20c5.523 0 10-4.477 10-10S15.523 0 10 0 0 4.477 0 10s4.477 10 10 10m0-2.82a7.18 7.18 0 1 0 0-14.36 7.18 7.18 0 0 0 0 14.36" clip-rule="evenodd"/><path fill="url(#b)" fill-rule="evenodd" d="M10 20c5.523 0 10-4.477 10-10S15.523 0 10 0 0 4.477 0 10s4.477 10 10 10m0-2.82a7.18 7.18 0 1 0 0-14.36 7.18 7.18 0 0 0 0 14.36" clip-rule="evenodd"/><circle cx="10.016" cy="10.015" r="6.687" fill="url(#c)"/><g filter="url(#d)" opacity=".5" style="mix-blend-mode:multiply"><path fill="#F6C340" d="M14.649 5.705a6.328 6.328 0 0 0-8.824 9.052 6.328 6.328 0 1 1 8.824-9.052"/></g><path fill="#FED425" fill-rule="evenodd" d="M10 19.315a9.314 9.314 0 1 0 0-18.63 9.314 9.314 0 0 0 0 18.63m0-2.628a6.687 6.687 0 1 0 0-13.374 6.687 6.687 0 0 0 0 13.374" clip-rule="evenodd"/><path fill="#FED425" fill-rule="evenodd" d="M10 19.314A9.314 9.314 0 1 0 10 .686a9.314 9.314 0 0 0 0 18.628m0-2.627a6.687 6.687 0 1 0 0-13.374 6.687 6.687 0 0 0 0 13.374" clip-rule="evenodd"/><path fill="url(#e)" fill-rule="evenodd" d="M10 18.657a8.657 8.657 0 1 0 0-17.314 8.657 8.657 0 0 0 0 17.314m0-2.442a6.215 6.215 0 1 0 0-12.43 6.215 6.215 0 0 0 0 12.43" clip-rule="evenodd"/><path fill="#FFD400" fill-rule="evenodd" d="M10 19.314A9.314 9.314 0 1 0 10 .685a9.314 9.314 0 0 0 0 18.63m0-2.627a6.687 6.687 0 1 0 0-13.374 6.687 6.687 0 0 0 0 13.374" clip-rule="evenodd"/><path fill="#FFFDB1" d="M15.94 4.089a.477.477 0 0 1 .691.006 8 8 0 0 1 1.39 2.132.48.48 0 0 1-.105.535l-.63.63c-.276.275-.755.144-.901-.218a6.1 6.1 0 0 0-1.073-1.74.534.534 0 0 1 .01-.728zm-.924-.979a.38.38 0 0 1 .493-.04.374.374 0 0 1 .032.565l-.813.812a.364.364 0 0 1-.468.033.37.37 0 0 1-.057-.558z"/><path fill="#FFF26B" d="M10 .685a9.314 9.314 0 0 0 0 18.63v-2.628a6.687 6.687 0 1 1 0-13.374z"/><path fill="#fff" d="M3.685 15.554a.363.363 0 0 1-.549-.031.366.366 0 0 1 .039-.48l.79-.79a.36.36 0 0 1 .542.056c.1.14.09.333-.032.455zm3 2.349a.39.39 0 0 1-.428.085 7.8 7.8 0 0 1-2.187-1.432.385.385 0 0 1-.004-.555l.723-.723a.42.42 0 0 1 .58-.005c.55.497 1.193.892 1.9 1.157.292.11.397.492.177.713z"/><path stroke="url(#f)" stroke-width=".25" d="M18.799 9.747c0-4.72-3.933-8.546-8.784-8.546-4.85 0-8.783 3.826-8.783 8.546"/><path fill="#FFFDB1" d="M18.83 12.02a9.07 9.07 0 0 1-6.81 6.81z"/><path fill="url(#g)" fill-rule="evenodd" d="M17.18 10a7.18 7.18 0 1 1-14.36 0 7.18 7.18 0 0 1 14.36 0m-.493 0a6.687 6.687 0 1 1-13.374 0 6.687 6.687 0 0 1 13.374 0" clip-rule="evenodd"/><g fill-opacity=".7" style="mix-blend-mode:multiply"><path fill="url(#h)" d="M7.77 13.406v-1.919h-.318v1.919z"/><path fill="url(#i)" d="M10.31 11.487h.14a1.402 1.402 0 0 0 1.489-1.47v-.002a1.402 1.402 0 0 0-1.49-1.471h-.14a1.403 1.403 0 0 1 1.312 1.47v.002a1.4 1.4 0 0 1-1.312 1.471"/><path fill="url(#j)" d="M7.77 8.544v-1.92h-.318v1.92z"/></g><path fill="url(#k)" d="M9.491 5.14h1.049v1.487c1.917.065 3.35 1.37 3.35 3.365v.047c0 1.995-1.433 3.3-3.35 3.364v1.487H9.49v-1.484H7.766v-1.919h2.683a1.403 1.403 0 0 0 1.49-1.47v-.002a1.4 1.4 0 0 0-1.49-1.471H7.766V6.625h1.725z" opacity=".45" style="mix-blend-mode:multiply"/><path fill="url(#l)" d="M13.468 10.015v-.023c0-1.845-1.225-3.099-2.924-3.329v-.035c1.915.066 3.345 1.37 3.345 3.364v.047c0 1.994-1.43 3.299-3.346 3.364v-.035c1.7-.23 2.925-1.484 2.925-3.329z" opacity=".7" style="mix-blend-mode:plus-lighter"/><path fill="url(#m)" fill-opacity=".7" d="M9.492 6.625V5.141h-.324v1.484z" style="mix-blend-mode:multiply"/><path fill="url(#n)" fill-opacity=".7" d="M9.492 14.89v-1.484h-.324v1.484z" style="mix-blend-mode:multiply"/></g><defs><linearGradient id="b" x1="10" x2="10" y1="0" y2="20" gradientUnits="userSpaceOnUse"><stop stop-color="#FAFFE8"/><stop offset=".465" stop-color="#F9D74F"/><stop offset="1" stop-color="#B04F0A"/></linearGradient><linearGradient id="c" x1="6.334" x2="14.402" y1="3.947" y2="15.86" gradientUnits="userSpaceOnUse"><stop stop-color="#FDEA80"/><stop offset="1" stop-color="#EA9500"/></linearGradient><linearGradient id="e" x1="6.374" x2="15.676" y1="4.511" y2="15.788" gradientUnits="userSpaceOnUse"><stop stop-color="#BD5806"/><stop offset="1" stop-color="#ED9F0F" stop-opacity="0"/></linearGradient><linearGradient id="f" x1="10.015" x2="10.015" y1="1.201" y2="9.747" gradientUnits="userSpaceOnUse"><stop stop-color="#fff"/><stop offset="1" stop-color="#FFF26B" stop-opacity="0"/></linearGradient><linearGradient id="g" x1="7.682" x2="13.784" y1="3.278" y2="16.169" gradientUnits="userSpaceOnUse"><stop stop-color="#FBFBA6" stop-opacity="0"/><stop offset="1" stop-color="#FFF5B2"/></linearGradient><linearGradient id="k" x1="8.366" x2="13.336" y1="5.141" y2="13.879" gradientUnits="userSpaceOnUse"><stop offset=".125" stop-color="#A06B0A"/><stop offset=".48" stop-color="#FFE556"/><stop offset=".89" stop-color="#9D6607"/></linearGradient><linearGradient id="l" x1="11.929" x2="11.929" y1="6.625" y2="13.406" gradientUnits="userSpaceOnUse"><stop stop-color="#fff"/><stop offset="1" stop-color="#fff" stop-opacity="0"/></linearGradient><radialGradient id="h" cx="0" cy="0" r="1" gradientTransform="matrix(1.948 0 0 2.48023 10.603 10.015)" gradientUnits="userSpaceOnUse"><stop offset=".255" stop-color="#D17900"/><stop offset="1" stop-color="#604622"/></radialGradient><radialGradient id="i" cx="0" cy="0" r="1" gradientTransform="matrix(1.948 0 0 2.48023 10.603 10.015)" gradientUnits="userSpaceOnUse"><stop offset=".255" stop-color="#D17900"/><stop offset="1" stop-color="#604622"/></radialGradient><radialGradient id="j" cx="0" cy="0" r="1" gradientTransform="matrix(1.948 0 0 2.48023 10.603 10.015)" gradientUnits="userSpaceOnUse"><stop offset=".255" stop-color="#D17900"/><stop offset="1" stop-color="#604622"/></radialGradient><radialGradient id="m" cx="0" cy="0" r="1" gradientTransform="matrix(1.98839 0 0 1.91878 12.385 7.764)" gradientUnits="userSpaceOnUse"><stop offset=".255" stop-color="#D17900"/><stop offset="1" stop-color="#604622"/></radialGradient><radialGradient id="n" cx="0" cy="0" r="1" gradientTransform="matrix(1.98839 0 0 1.91878 12.385 16.029)" gradientUnits="userSpaceOnUse"><stop offset=".255" stop-color="#D17900"/><stop offset="1" stop-color="#604622"/></radialGradient><clipPath id="a"><path fill="#fff" d="M0 0h20v20H0z"/></clipPath><filter id="d" width="11.361" height="11.47" x="3.488" y="3.487" color-interpolation-filters="sRGB" filterUnits="userSpaceOnUse"><feFlood flood-opacity="0" result="BackgroundImageFix"/><feBlend in="SourceGraphic" in2="BackgroundImageFix" result="shape"/><feGaussianBlur result="effect1_foregroundBlur_249_35873" stdDeviation=".1"/></filter></defs></svg>