<svg width="24" height="24" viewBox="0 0 32 32" fill="none" xmlns="http://www.w3.org/2000/svg">
<circle cx="16" cy="16" r="16" fill="#232A37"></circle>
<path d="M11.6382 16.9951C11.9106 16.9956 12.148 17.1805 12.2153 17.4444L12.2293 17.5174L12.2511 17.6803L12.3424 17.5468C12.3515 17.5279 12.5551 17.2239 12.9371 17.1691L13.0451 17.1614C13.1 17.16 13.1589 17.1642 13.2172 17.1755L13.3014 17.1987C13.6321 17.2969 13.7066 17.5785 13.7255 17.7266L13.7297 17.7638C13.7389 17.8291 13.7732 17.841 13.7922 17.8438L13.802 17.8446C13.8231 17.8446 13.8385 17.8347 13.8533 17.8256L13.8736 17.8129C13.9665 17.7166 14.0883 17.6531 14.2204 17.6318L14.3118 17.6248C14.3889 17.6234 14.4718 17.6388 14.5567 17.6683L14.641 17.7021C15.1787 17.9267 14.9759 18.581 14.9527 18.6582L14.9506 18.6652C14.9084 18.7678 14.9028 18.8205 14.9254 18.8527L14.9429 18.8696L14.9639 18.8794H14.9843C14.9983 18.8794 15.0208 18.8738 15.0496 18.8654L15.0966 18.8471C15.1577 18.8239 15.237 18.7993 15.3192 18.7888L15.4034 18.7818C15.796 18.7832 16.1267 19.0755 16.1764 19.4649L16.1821 19.5471C16.1771 19.9177 15.8767 20.2393 15.4863 20.2842L15.4013 20.2898C15.0176 20.2962 14.6885 20.0173 14.6318 19.6377L14.6228 19.5555C14.6228 19.5303 14.622 19.4558 14.5736 19.4319L14.5399 19.4249C14.5171 19.4263 14.4955 19.4348 14.4781 19.4495L14.4479 19.4762C14.3693 19.5471 14.2766 19.6263 14.1411 19.6419L14.0709 19.6439C14.0149 19.6448 13.9592 19.6364 13.906 19.6193L13.8238 19.5864C13.4116 19.4213 13.3794 19.1546 13.392 19.0191L13.3956 18.991C13.4026 18.9711 13.4036 18.9496 13.3984 18.9293L13.3842 18.8991L13.3527 18.8787H13.3225C13.3067 18.8798 13.2915 18.8849 13.2782 18.8934L13.2509 18.9109C13.1643 18.9799 13.0611 19.025 12.9518 19.0416L12.8732 19.0486C12.8273 19.0494 12.7815 19.0442 12.7369 19.0331L12.6674 19.0099C12.1269 18.7965 12.1318 18.3079 12.1584 18.1127L12.164 18.0776C12.164 18.058 12.1634 18.0376 12.157 18.0236L12.1423 18.0075L12.1002 17.9772L12.0602 18.0193C11.9679 18.1102 11.8477 18.167 11.7189 18.1808L11.6418 18.1865H11.6347C11.3084 18.1827 11.0446 17.9195 11.04 17.5931C11.0414 17.2926 11.265 17.0394 11.5632 17.0007L11.6382 16.9951ZM8.70145 12.44L8.68961 12.4365C9.84097 12.8985 11.2338 13.265 11.7596 13.3191L11.8292 13.3247L12.2293 13.3506C12.475 13.3478 12.7209 13.2924 12.9616 13.2271L13.1407 13.1766C13.2558 13.1414 13.3808 13.1063 13.512 13.0762L13.7128 13.0368L13.6321 13.1155L13.5507 13.2018L12.7209 14.0984C12.6668 14.1538 12.5411 14.3062 12.5804 14.4886L12.6036 14.5589C12.6382 14.631 12.6879 14.6946 12.7496 14.7457L12.8212 14.8004C12.9932 14.9142 13.291 14.9956 13.5822 15.018L13.7066 15.0236C13.7886 15.0222 13.8708 15.0166 13.9495 15.0068L14.0646 14.9886C14.3735 14.9212 14.6972 14.6768 15.044 14.4128L15.1753 14.3132C15.4414 14.0956 15.8176 13.8309 16.1336 13.7038L16.2649 13.6581C16.326 13.6441 16.4011 13.6293 16.4713 13.6202L16.5717 13.6132H16.6124L16.6538 13.6223C16.8574 13.6476 17.0526 13.7136 17.3692 13.9313L17.4788 14.0092C18.1436 14.507 21.0473 17.0119 21.232 17.1649L21.2404 17.1719C21.2404 17.1719 21.3963 17.3075 21.4188 17.53L21.4208 17.6185C21.4124 17.7492 21.3505 17.8705 21.2495 17.954L21.1793 18.0089C21.083 18.0713 20.9743 18.1126 20.8605 18.1296L20.7805 18.1359C20.6008 18.138 20.4759 18.0614 20.4407 18.0418L20.4309 18.0376C19.9756 17.6256 19.5147 17.2198 19.0485 16.8202L18.9896 16.7717C18.9484 16.737 18.9028 16.7077 18.8541 16.6847L18.8141 16.6721C18.7932 16.6717 18.7729 16.678 18.7558 16.6897L18.7327 16.7142C18.6806 16.7759 18.7271 16.8588 18.7866 16.9256L18.8175 16.9578L20.0321 18.1654C20.0321 18.1654 20.1515 18.2728 20.1894 18.4223L20.2 18.489C20.2112 18.6674 20.1361 18.8155 19.9802 18.9398L19.9086 18.9917C19.8067 19.0633 19.6893 19.1097 19.566 19.1273L19.4796 19.1301C19.3628 19.1293 19.2485 19.096 19.1497 19.0339L19.1299 19.0219L18.9538 18.8506C18.6772 18.5838 18.3942 18.3087 18.1682 18.1093L18.0608 18.0159C18.0202 17.9795 17.973 17.9514 17.9217 17.933L17.8754 17.926C17.8572 17.926 17.8394 17.9314 17.8241 17.9414L17.8031 17.9582C17.7786 17.9843 17.761 18.0243 17.7975 18.0889L17.8263 18.131C17.8501 18.1612 17.8734 18.1857 17.8838 18.1963L17.8888 18.2019L18.7832 19.189L18.8021 19.2121C18.8415 19.2656 18.9207 19.4024 18.8443 19.5506L18.8091 19.6067L18.7782 19.6475L18.7375 19.6888L18.6975 19.7303C18.5642 19.8391 18.39 19.8623 18.3009 19.8665L18.2678 19.8679L18.2067 19.8672L18.1457 19.8588C18.094 19.8508 18.044 19.8345 17.9975 19.8103L17.9694 19.7892L17.959 19.7794L17.9141 19.7353C17.6747 19.4948 17.4262 19.2637 17.1692 19.0423L17.0883 18.9756C17.049 18.9454 17.0041 18.9095 16.9586 18.8941L16.9121 18.8857C16.8919 18.8857 16.8719 18.8905 16.854 18.8997L16.8307 18.9181C16.769 18.9896 16.8406 19.0914 16.8939 19.1427L16.9157 19.1609L17.6746 19.9872C17.6746 19.9942 17.6704 20.0013 17.6612 20.0139L17.6444 20.0385C17.6185 20.0743 17.5447 20.1425 17.3488 20.188L17.2576 20.2063L17.1544 20.2177C16.9031 20.2203 16.6426 20.1143 16.4776 20.0349L16.413 20.0027C16.4692 19.8798 16.5057 19.7499 16.5169 19.6207L16.5204 19.5225C16.5217 18.9393 16.0733 18.4539 15.4919 18.4091L15.3887 18.4055H15.348C15.3634 18.1394 15.3326 17.6613 14.8755 17.4051L14.7701 17.3538C14.6572 17.304 14.5375 17.2717 14.415 17.2576L14.2976 17.2478C14.2184 17.2482 14.1395 17.2581 14.0625 17.2773L13.9501 17.3124C13.8546 17.1237 13.6961 16.9743 13.5022 16.8897L13.4004 16.8512C13.3022 16.8158 13.1993 16.7945 13.095 16.7879L12.9996 16.7845C12.8121 16.7854 12.6279 16.8335 12.4638 16.9242L12.3656 16.9853C12.2065 16.7915 11.979 16.6665 11.7302 16.6362L11.6235 16.6278C11.4078 16.6283 11.1987 16.7024 11.031 16.8378L10.9496 16.9115C10.7185 16.7366 9.8388 16.1877 7.50237 15.6443L7.27205 15.5916C7.11261 15.5518 6.9538 15.5087 6.79614 15.4625L6.71533 15.4379C6.93369 14.3138 7.64413 13.2818 8.70145 12.44ZM16.5646 12.1768C17.3903 12.1768 18.2201 12.5229 18.3844 12.5931L18.4055 12.6022C19.11 12.9495 19.8782 13.1486 20.6627 13.187L20.9154 13.1934C21.7178 13.1926 22.5428 13.0066 23.4063 12.6422L23.6366 12.5404L23.7229 12.6121C24.6329 13.3934 25.2513 14.3251 25.4781 15.3375L25.5188 15.5411H25.516L25.5076 15.4898C24.1153 15.7968 22.7558 16.2364 21.4475 16.8027L21.4005 16.8238C20.5032 16.0515 18.4567 14.2942 17.7848 13.7768L17.7111 13.7213C17.4211 13.5023 17.2035 13.3752 17.0231 13.3078L16.9472 13.2826C16.8629 13.2553 16.7758 13.2378 16.6875 13.2299L16.5773 13.2257C16.4614 13.2277 16.3464 13.2397 16.227 13.2692L16.1062 13.3036C15.7755 13.4054 15.4462 13.6476 15.1234 13.9004L14.9864 14.0092L14.9661 14.0204C14.6683 14.2591 14.3539 14.5062 14.101 14.596L14.0098 14.6221C13.934 14.6368 13.8547 14.6515 13.7732 14.6599L13.6503 14.667C13.3864 14.6712 13.1455 14.6018 13.022 14.5014L12.9812 14.462C12.9658 14.4473 12.9672 14.4262 12.9862 14.3946L13.0108 14.3595L13.0213 14.3489L13.8413 13.4636C14.4507 12.8528 15.0328 12.2702 16.3056 12.1859L16.4923 12.1774H16.564L16.5646 12.1768Z" fill="white"></path>
<path d="M16.0605 22.8549C21.2487 22.8549 25.4545 19.8279 25.4545 16.0939C25.4545 12.36 21.2487 9.33301 16.0605 9.33301C10.8724 9.33301 6.6665 12.36 6.6665 16.0939C6.6665 19.8279 10.8724 22.8549 16.0605 22.8549Z" stroke="white" stroke-width="1.1609"></path>
</svg>
